<svg xmlns="http://www.w3.org/2000/svg" width="652.421" height="406.139" viewBox="0 0 652.421 406.139">
  <g id="Group_973" data-name="Group 973" transform="translate(-33.369 -35.011)">
    <g id="Background_Complete" data-name="Background Complete" transform="translate(38.624 52.98)">
      <g id="Group_844" data-name="Group 844" transform="translate(381.355 344.227)">
        <path id="Path_718" data-name="Path 718" d="M466.989,443.783a16.042,16.042,0,0,1,23.806,12.347c-9.725.01-19.308-2.261-23.806-12.347" transform="translate(-435.981 -412.187)" fill="#ebebeb"/>
        <g id="Group_842" data-name="Group 842" transform="translate(0 0)">
          <path id="Path_719" data-name="Path 719" d="M478.758,432.685A20.76,20.76,0,0,0,505.9,411.053c-12.351,2.42-23.949,7.7-27.137,21.632" transform="translate(-436.415 -411.053)" fill="#ebebeb"/>
          <g id="Group_841" data-name="Group 841" transform="translate(0 11.08)">
            <path id="Path_720" data-name="Path 720" d="M434.793,449.567a3.11,3.11,0,0,1,.609-.242l1.774-.6c1.547-.5,3.782-1.231,6.526-2.186,5.493-1.893,13.035-4.656,21.161-8.2,4.058-1.783,7.873-3.592,11.3-5.327,3.41-1.762,6.432-3.445,8.907-4.96a59.245,59.245,0,0,0,5.658-3.887c1.276-1,1.9-1.652,1.941-1.609a3.148,3.148,0,0,1-.441.483,15.031,15.031,0,0,1-1.375,1.277,51.047,51.047,0,0,1-5.594,4.036c-2.462,1.559-5.475,3.28-8.884,5.071-3.424,1.761-7.242,3.589-11.31,5.375-8.144,3.548-15.721,6.262-21.249,8.073-2.762.913-5.017,1.592-6.582,2.036l-1.8.51A3.194,3.194,0,0,1,434.793,449.567Z" transform="translate(-434.793 -422.558)" fill="#e0e0e0"/>
          </g>
        </g>
        <g id="Group_843" data-name="Group 843" transform="translate(20.354 30.641)">
          <path id="Path_721" data-name="Path 721" d="M479.076,449.487c-.049.071-1.178-.711-3.118-1.761a37.438,37.438,0,0,0-16.452-4.5c-2.2-.085-3.573.014-3.58-.072a3.578,3.578,0,0,1,.955-.157,23.268,23.268,0,0,1,2.632-.125,33.079,33.079,0,0,1,16.618,4.55,23.5,23.5,0,0,1,2.2,1.448A3.568,3.568,0,0,1,479.076,449.487Z" transform="translate(-455.927 -442.868)" fill="#e0e0e0"/>
        </g>
      </g>
      <g id="Group_846" data-name="Group 846" transform="translate(193.505 332.233)">
        <path id="Path_722" data-name="Path 722" d="M241.68,404.776a20.228,20.228,0,0,0,19.941,27.311c-1.847-12.124-6.51-23.633-19.941-27.311" transform="translate(-239.771 -398.828)" fill="#ebebeb"/>
        <g id="Group_845" data-name="Group 845" transform="translate(0 0)">
          <path id="Path_723" data-name="Path 723" d="M239.756,398.6c.081-.019.411,1.324,1.111,3.437a49.951,49.951,0,0,0,8.169,15.239c1.373,1.752,2.309,2.771,2.249,2.828a3.639,3.639,0,0,1-.73-.647c-.452-.435-1.067-1.1-1.793-1.957a42.286,42.286,0,0,1-8.233-15.357c-.309-1.078-.524-1.961-.638-2.577A3.687,3.687,0,0,1,239.756,398.6Z" transform="translate(-239.745 -398.6)" fill="#e0e0e0"/>
        </g>
      </g>
      <g id="Group_848" data-name="Group 848" transform="translate(0 85.946)">
        <path id="Path_724" data-name="Path 724" d="M41.813,152.443A31.334,31.334,0,0,0,72.7,194.751c-2.862-18.781-10.085-36.61-30.89-42.308" transform="translate(-38.864 -143.228)" fill="#ebebeb"/>
        <g id="Group_847" data-name="Group 847">
          <path id="Path_725" data-name="Path 725" d="M38.832,142.875a8.717,8.717,0,0,1,.451,1.437c.248.934.646,2.276,1.178,3.918a74.847,74.847,0,0,0,12.672,23.638c1.073,1.351,1.97,2.425,2.611,3.149a8.824,8.824,0,0,1,.948,1.17,8.562,8.562,0,0,1-1.092-1.038c-.686-.686-1.628-1.728-2.742-3.058a67.257,67.257,0,0,1-12.736-23.756c-.49-1.664-.837-3.025-1.029-3.977A8.632,8.632,0,0,1,38.832,142.875Z" transform="translate(-38.825 -142.875)" fill="#e0e0e0"/>
        </g>
      </g>
      <g id="Group_850" data-name="Group 850" transform="translate(27.952 280.769)">
        <path id="Path_726" data-name="Path 726" d="M75.386,351.484a20.229,20.229,0,0,0,3.266,33.659c4.58-11.377,6.424-23.658-3.266-33.659" transform="translate(-67.848 -345.397)" fill="#ebebeb"/>
        <g id="Group_849" data-name="Group 849" transform="translate(6.486)">
          <path id="Path_727" data-name="Path 727" d="M77.027,345.164c.079.025-.321,1.35-.794,3.525a49.948,49.948,0,0,0-.722,17.275c.289,2.207.577,3.561.5,3.579a3.649,3.649,0,0,1-.3-.928c-.167-.6-.357-1.493-.547-2.6a42.241,42.241,0,0,1,.728-17.408c.282-1.085.546-1.955.763-2.544A3.673,3.673,0,0,1,77.027,345.164Z" transform="translate(-74.583 -345.164)" fill="#e0e0e0"/>
        </g>
      </g>
      <g id="Group_852" data-name="Group 852" transform="translate(208.114 26.293)">
        <path id="Path_728" data-name="Path 728" d="M261.26,97.971a20.229,20.229,0,0,0,29.214-17.034c-12.251.594-24.178,4.051-29.214,17.034" transform="translate(-255.148 -80.937)" fill="#ebebeb"/>
        <g id="Group_851" data-name="Group 851" transform="translate(0 9.048)">
          <path id="Path_729" data-name="Path 729" d="M254.914,99.6c-.01-.083,1.36-.274,3.535-.752a49.925,49.925,0,0,0,16-6.563c1.885-1.187,2.993-2.012,3.044-1.946a3.674,3.674,0,0,1-.718.66c-.48.4-1.207.948-2.131,1.583a42.254,42.254,0,0,1-16.12,6.614c-1.1.2-2,.321-2.628.371A3.648,3.648,0,0,1,254.914,99.6Z" transform="translate(-254.914 -90.331)" fill="#e0e0e0"/>
        </g>
      </g>
      <g id="Group_854" data-name="Group 854" transform="translate(184.011)">
        <path id="Path_730" data-name="Path 730" d="M235.277,95.212a26.671,26.671,0,0,0,16.106-41.576c-12.138,10.685-21.589,24.053-16.106,41.576" transform="translate(-230.027 -53.636)" fill="#ebebeb"/>
        <g id="Group_853" data-name="Group 853" transform="translate(0 19.813)">
          <path id="Path_731" data-name="Path 731" d="M229.889,102.315a6.224,6.224,0,0,1,.812-.994c.551-.611,1.326-1.514,2.256-2.651a64.374,64.374,0,0,0,11.1-19.935c.478-1.389.838-2.523,1.067-3.313a6.279,6.279,0,0,1,.417-1.214,6.267,6.267,0,0,1-.228,1.264c-.171.808-.482,1.963-.919,3.374A56.768,56.768,0,0,1,233.228,98.9c-.97,1.114-1.788,1.986-2.386,2.557A6.332,6.332,0,0,1,229.889,102.315Z" transform="translate(-229.887 -74.208)" fill="#e0e0e0"/>
        </g>
      </g>
      <g id="Group_856" data-name="Group 856" transform="translate(264.855 369.175)">
        <path id="Path_732" data-name="Path 732" d="M317.372,439.283a12.18,12.18,0,0,0,20.234,2.278c-6.129-4.118-13.133-6.738-20.234-2.278" transform="translate(-313.96 -436.957)" fill="#ebebeb"/>
        <g id="Group_855" data-name="Group 855" transform="translate(0 0.737)">
          <path id="Path_733" data-name="Path 733" d="M313.83,437.731a56.405,56.405,0,0,0,6.931,2.542,56.842,56.842,0,0,0,7.3,1.1,7.306,7.306,0,0,1-2.187.128,24.267,24.267,0,0,1-10.19-2.608A7.27,7.27,0,0,1,313.83,437.731Z" transform="translate(-313.829 -437.722)" fill="#e0e0e0"/>
        </g>
      </g>
      <g id="Group_858" data-name="Group 858" transform="translate(353.892 21.643)">
        <path id="Path_734" data-name="Path 734" d="M410.07,80.176A12.179,12.179,0,0,0,430.362,78.5c-6.81-2.855-14.187-4.069-20.292,1.679" transform="translate(-406.418 -76.109)" fill="#ebebeb"/>
        <g id="Group_857" data-name="Group 857" transform="translate(0 3.163)">
          <path id="Path_735" data-name="Path 735" d="M406.278,79.407a36.691,36.691,0,0,0,14.668.822,7.294,7.294,0,0,1-2.121.549,24.241,24.241,0,0,1-10.5-.588A7.312,7.312,0,0,1,406.278,79.407Z" transform="translate(-406.278 -79.392)" fill="#e0e0e0"/>
        </g>
      </g>
      <g id="Group_860" data-name="Group 860" transform="translate(583.162 33.034)">
        <path id="Path_736" data-name="Path 736" d="M650.3,110.238a20.22,20.22,0,0,0,25.4-22.3c-11.9,2.927-22.944,8.6-25.4,22.3" transform="translate(-644.553 -87.936)" fill="#ebebeb"/>
        <g id="Group_859" data-name="Group 859" transform="translate(0 11.318)">
          <path id="Path_737" data-name="Path 737" d="M644.333,113.1c-.025-.079,1.282-.528,3.324-1.415a49.851,49.851,0,0,0,14.437-9.5c1.622-1.524,2.551-2.546,2.614-2.492a3.677,3.677,0,0,1-.579.785c-.393.487-1,1.161-1.787,1.961a42.236,42.236,0,0,1-14.549,9.574c-1.045.4-1.9.7-2.508.866A3.624,3.624,0,0,1,644.333,113.1Z" transform="translate(-644.333 -99.688)" fill="#e0e0e0"/>
        </g>
      </g>
      <g id="Group_862" data-name="Group 862" transform="translate(604.907 293.704)">
        <path id="Path_738" data-name="Path 738" d="M673.877,413.765a35.185,35.185,0,0,0,20.4-55.171c-15.794,14.341-27.988,32.168-20.4,55.171" transform="translate(-667.083 -358.594)" fill="#ebebeb"/>
        <g id="Group_861" data-name="Group 861" transform="translate(0 26.251)">
          <path id="Path_739" data-name="Path 739" d="M666.912,423.245a11.04,11.04,0,0,1,1.074-1.306c.722-.81,1.734-2.014,2.942-3.529s2.585-3.371,4.025-5.49c1.42-2.132,2.9-4.532,4.3-7.133,1.391-2.61,2.574-5.168,3.567-7.53.971-2.371,1.763-4.54,2.352-6.388s1.039-3.353,1.316-4.4a10.909,10.909,0,0,1,.495-1.616,10.948,10.948,0,0,1-.305,1.663c-.22,1.066-.613,2.594-1.167,4.461s-1.31,4.063-2.261,6.458a76.295,76.295,0,0,1-7.918,14.748c-1.47,2.117-2.876,3.964-4.133,5.453s-2.3,2.666-3.072,3.437A10.82,10.82,0,0,1,666.912,423.245Z" transform="translate(-666.911 -385.851)" fill="#e0e0e0"/>
        </g>
      </g>
    </g>
    <g id="Capa_8" data-name="Capa 8" transform="translate(174.903 117.141)">
      <g id="Group_864" data-name="Group 864">
        <path id="Path_740" data-name="Path 740" d="M525.015,283.543c-6.083-33.946-35.233-63.591-69.607-66.391-18.727-1.526-37.564,4.381-56.218,2.127A65.465,65.465,0,0,1,358.273,197.7c-15.392-17.533-20.626-42.466-36.934-59.15-22.48-23-61.711-23.362-89.059-6.438s-43.886,47.457-51.454,78.715l-.3,9.5c-1.647,32.421,6.879,70.1,25.692,99,19.056,29.273,31.587,41.361,66.317,62.414,29.492,17.877,87.24,25.735,121.717,26.566s69.9-9.448,95.824-32.188S531.1,317.489,525.015,283.543Z" transform="translate(-180.326 -120.255)" fill="#fff"/>
        <g id="Group_863" data-name="Group 863" opacity="0.8">
          <path id="Path_741" data-name="Path 741" d="M525.015,283.543c-6.083-33.946-35.233-63.591-69.607-66.391-18.727-1.526-37.564,4.381-56.218,2.127A65.465,65.465,0,0,1,358.273,197.7c-15.392-17.533-20.626-42.466-36.934-59.15-22.48-23-61.711-23.362-89.059-6.438s-43.886,47.457-51.454,78.715l-.3,9.5c-1.647,32.421,6.879,70.1,25.692,99,19.056,29.273,31.587,41.361,66.317,62.414,29.492,17.877,87.24,25.735,121.717,26.566s69.9-9.448,95.824-32.188S531.1,317.489,525.015,283.543Z" transform="translate(-180.326 -120.255)" fill="#fff"/>
        </g>
      </g>
      <g id="Group_865" data-name="Group 865" transform="translate(343.19 263.259)">
        <circle id="Ellipse_90" data-name="Ellipse 90" cx="16.618" cy="16.618" r="16.618" transform="translate(0 32.891) rotate(-81.743)" fill="#f4f1ef"/>
        <circle id="Ellipse_91" data-name="Ellipse 91" cx="16.618" cy="16.618" r="16.618" transform="translate(0 32.891) rotate(-81.743)" fill="#f4f1ef" opacity="0.8"/>
      </g>
    </g>
    <g id="_404" data-name="404" transform="translate(35.887 90.726)">
      <g id="Group_866" data-name="Group 866" transform="translate(216.615 21.066)">
        <path id="Path_742" data-name="Path 742" d="M428.733,274.336q.477,49.743-21.691,76.053t-60.7,26.682q-38.711.373-61.552-25.508t-23.321-75.621l-.561-58.323q-.475-49.563,21.69-76.053t60.873-26.859q38.53-.371,61.379,25.685t23.321,75.62Zm-43.183-64.45q-.3-31.321-10.954-46.271T343.8,148.86q-20.143.192-30.418,15.342t-9.976,46.472l.681,70.868q.3,31.5,11.045,46.533t30.883,14.841q20.138-.194,30.331-15.341t9.884-46.822Z" transform="translate(-260.899 -114.702)" fill="#fff" stroke="#000" stroke-miterlimit="10" stroke-width="1.7"/>
      </g>
      <g id="Group_867" data-name="Group 867" transform="translate(241.135 20.83)">
        <path id="Path_743" data-name="Path 743" d="M454.192,274.091q.478,49.743-21.69,76.053t-60.7,26.683q-38.711.371-61.551-25.509T286.928,275.7l-.561-58.323q-.475-49.564,21.691-76.054t60.873-26.859q38.529-.37,61.378,25.685t23.321,75.621Zm-43.183-64.45q-.3-31.32-10.954-46.271t-30.795-14.755q-20.143.194-30.417,15.343t-9.977,46.472l.681,70.868q.3,31.5,11.045,46.533t30.883,14.841q20.14-.194,30.331-15.342t9.885-46.822Z" transform="translate(-286.358 -114.457)" fill="#ff5733"/>
      </g>
      <g id="Group_868" data-name="Group 868" transform="translate(328.82 223.324)">
        <path id="Path_744" data-name="Path 744" d="M410.263,324.713c.057.126-7.253,3.535-16.326,7.614s-16.477,7.285-16.533,7.159,7.252-3.535,16.328-7.616S410.206,324.587,410.263,324.713Z" transform="translate(-377.403 -324.709)" fill="#e8505b"/>
      </g>
      <g id="Group_869" data-name="Group 869" transform="translate(339.312 203.575)">
        <path id="Path_745" data-name="Path 745" d="M415.46,304.208c.057.126-5.979,2.962-13.479,6.334s-13.628,6-13.685,5.878,5.977-2.962,13.479-6.335S415.4,304.082,415.46,304.208Z" transform="translate(-388.297 -304.203)" fill="#e8505b"/>
      </g>
      <g id="Group_870" data-name="Group 870" transform="translate(341.518 181.393)">
        <path id="Path_746" data-name="Path 746" d="M417.751,281.176c.057.126-5.978,2.963-13.478,6.334s-13.629,6-13.686,5.877,5.977-2.962,13.479-6.334S417.694,281.05,417.751,281.176Z" transform="translate(-390.588 -281.171)" fill="#e8505b"/>
      </g>
      <g id="Group_871" data-name="Group 871" transform="translate(343.725 159.211)">
        <path id="Path_747" data-name="Path 747" d="M420.043,258.144c.057.126-5.979,2.962-13.479,6.334s-13.628,6-13.685,5.877,5.977-2.962,13.479-6.334S419.986,258.018,420.043,258.144Z" transform="translate(-392.88 -258.139)" fill="#e8505b"/>
      </g>
      <g id="Group_872" data-name="Group 872" transform="translate(345.932 137.028)">
        <path id="Path_748" data-name="Path 748" d="M422.334,235.111c.057.127-5.978,2.963-13.478,6.335s-13.629,6-13.686,5.877,5.977-2.962,13.479-6.335S422.277,234.985,422.334,235.111Z" transform="translate(-395.171 -235.106)" fill="#e8505b"/>
      </g>
      <g id="Group_873" data-name="Group 873" transform="translate(341.518 117.274)">
        <path id="Path_749" data-name="Path 749" d="M417.751,214.6c.057.126-5.978,2.963-13.478,6.334s-13.629,6-13.686,5.878,5.977-2.962,13.479-6.335S417.694,214.474,417.751,214.6Z" transform="translate(-390.588 -214.595)" fill="#e8505b"/>
      </g>
      <g id="Group_874" data-name="Group 874" transform="translate(341.518 96.008)">
        <path id="Path_750" data-name="Path 750" d="M417.751,192.52c.057.126-5.978,2.962-13.478,6.334s-13.629,6-13.686,5.878,5.977-2.962,13.479-6.335S417.694,192.394,417.751,192.52Z" transform="translate(-390.588 -192.515)" fill="#e8505b"/>
      </g>
      <g id="Group_875" data-name="Group 875" transform="translate(339.312 75.983)">
        <path id="Path_751" data-name="Path 751" d="M415.46,171.727c.057.126-5.979,2.962-13.479,6.334s-13.628,6-13.685,5.878,5.977-2.962,13.479-6.335S415.4,171.6,415.46,171.727Z" transform="translate(-388.297 -171.722)" fill="#e8505b"/>
      </g>
      <g id="Group_876" data-name="Group 876" transform="translate(330.928 62.031)">
        <path id="Path_752" data-name="Path 752" d="M396.114,157.243a82.124,82.124,0,0,1-8.158,3.943,81.687,81.687,0,0,1-8.364,3.484,163.456,163.456,0,0,1,16.522-7.427Z" transform="translate(-379.591 -157.236)" fill="#e8505b"/>
      </g>
      <g id="Group_877" data-name="Group 877" transform="translate(320.756 53.485)">
        <path id="Path_753" data-name="Path 753" d="M385.553,148.37a81.994,81.994,0,0,1-8.158,3.942,82.109,82.109,0,0,1-8.363,3.485,163.477,163.477,0,0,1,16.522-7.427Z" transform="translate(-369.03 -148.362)" fill="#e8505b"/>
      </g>
      <g id="Group_878" data-name="Group 878" transform="translate(365.613 159.354)">
        <path id="Path_754" data-name="Path 754" d="M460.882,258.3c.01.053-.686.144-1.872.537a18.554,18.554,0,0,0-4.65,2.49c-1.838,1.282-3.829,3.072-6.174,4.925a44.873,44.873,0,0,1-8.276,5.092,45.538,45.538,0,0,1-17.013,4.4c-1.126.092-2.151.06-3.047.08-.9-.037-1.669-.052-2.3-.1l-1.446-.147a2.011,2.011,0,0,1-.5-.085,1.94,1.94,0,0,1,.509-.015l1.447.052,2.288.015c.89-.047,1.907-.039,3.023-.154a47.405,47.405,0,0,0,16.82-4.495,46.136,46.136,0,0,0,8.209-5c2.34-1.816,4.371-3.591,6.255-4.852a17.309,17.309,0,0,1,4.793-2.384,10.183,10.183,0,0,1,1.425-.308A1.908,1.908,0,0,1,460.882,258.3Z" transform="translate(-415.606 -258.289)" fill="#fff"/>
      </g>
      <g id="Group_879" data-name="Group 879" transform="translate(363.493 83.759)">
        <path id="Path_755" data-name="Path 755" d="M455.336,186.434a1.565,1.565,0,0,1-.409-.2l-1.118-.645a17.625,17.625,0,0,0-1.788-.977c-.715-.346-1.5-.795-2.438-1.148l-1.448-.6c-.5-.205-1.052-.359-1.605-.552-1.1-.408-2.326-.687-3.6-1.018a39.783,39.783,0,0,0-17.028-.15c-1.282.308-2.511.565-3.619.954-.558.183-1.108.327-1.615.523l-1.458.576c-.942.337-1.736.771-2.457,1.1a17.6,17.6,0,0,0-1.8.945l-1.129.626a1.611,1.611,0,0,1-.413.19c-.01-.014.114-.109.358-.275l1.084-.708a15.073,15.073,0,0,1,1.776-1.027,24.96,24.96,0,0,1,2.447-1.182l1.461-.612c.509-.208,1.062-.364,1.623-.558a36.933,36.933,0,0,1,3.65-1.009,38.628,38.628,0,0,1,17.228.152,36.551,36.551,0,0,1,3.632,1.074c.557.2,1.107.369,1.613.586l1.449.637a25.008,25.008,0,0,1,2.426,1.226,15.25,15.25,0,0,1,1.758,1.057l1.072.728C455.225,186.323,455.346,186.419,455.336,186.434Z" transform="translate(-413.404 -179.797)" fill="#fff"/>
      </g>
      <g id="Group_880" data-name="Group 880" transform="translate(0 26.911)">
        <path id="Path_756" data-name="Path 756" d="M189.186,286.641l32.2,1.406-1.49,34.122-32.2-1.406-2.475,56.7-42.347-1.849,2.475-56.7L35.983,314.141l.083-25.984L152.6,120.77l43.747,1.909ZM78.421,281.806l68.418,2.987,4.515-103.416-1.035-.4-3.827,7.372Z" transform="translate(-35.983 -120.77)" fill="#fff" stroke="#000" stroke-miterlimit="10" stroke-width="1.7"/>
      </g>
      <g id="Group_881" data-name="Group 881" transform="translate(26.928 28.086)">
        <path id="Path_757" data-name="Path 757" d="M217.145,287.862l32.2,1.406-1.49,34.122-32.2-1.406-2.475,56.7-42.346-1.848,2.475-56.7L63.943,315.362l.082-25.985L180.557,121.99,224.3,123.9Zm-110.766-4.835,68.419,2.987L179.313,182.6l-1.035-.4-3.827,7.372Z" transform="translate(-63.943 -121.99)" fill="#ff5733"/>
      </g>
      <g id="Group_882" data-name="Group 882" transform="translate(423.365 32.734)">
        <path id="Path_758" data-name="Path 758" d="M624.27,287.258l31.507-3.081,3.266,33.39-31.507,3.081,5.426,55.479-41.437,4.053L586.1,324.7,479.081,335.167l-3.509-25.282L565.773,131l42.807-4.187Zm-108.388,10.6,66.951-6.547-9.9-101.2-1.061-.241-2.7,7.7Z" transform="translate(-475.571 -126.816)" fill="#fff" stroke="#000" stroke-miterlimit="10" stroke-width="1.7"/>
      </g>
      <g id="Group_883" data-name="Group 883" transform="translate(446.876 27.219)">
        <path id="Path_759" data-name="Path 759" d="M651.368,284.43l32.075-3.138,3.325,33.992-32.075,3.138,5.523,56.48-42.185,4.125-5.523-56.48L503.555,333.2l-3.572-25.738,91.831-182.114,43.58-4.262ZM541.022,295.222l68.16-6.667L599.108,185.531l-1.082-.246-2.753,7.837Z" transform="translate(-499.983 -121.09)" fill="#ff5733"/>
      </g>
      <g id="Group_886" data-name="Group 886" transform="translate(270.004 100.808)">
        <path id="Path_760" data-name="Path 760" d="M453.81,220.649l-6.746-1.055-41.772-13.473-24.429-7.059a26.282,26.282,0,0,0-21.138,1.438c-11.54,5.883-43.392,35.524-43.392,35.524l22.932,23.642-10.8,47.847c12.089,34.367,35.753,38.3,35.753,38.3a83.9,83.9,0,0,0,33.9-5.6c21.976-8.382,45.046-28.02,47.934-36.466,1.735-5.07,3.164-15.715,4.3-27.745l34.791-14.182,9.427-48.124Z" transform="translate(-316.333 -197.499)" fill="#fff" stroke="#000" stroke-linecap="round" stroke-linejoin="round" stroke-width="1.7"/>
        <g id="Group_884" data-name="Group 884" transform="translate(48.575 100.004)">
          <path id="Path_761" data-name="Path 761" d="M404.861,309.654c.01.013-.106.117-.338.3s-.568.461-1.04.763a23.62,23.62,0,0,1-4.183,2.248,25.51,25.51,0,0,1-28.854-6.3,23.649,23.649,0,0,1-2.864-3.786c-.3-.471-.485-.87-.627-1.127a1.524,1.524,0,0,1-.183-.412,15.5,15.5,0,0,1,.975,1.433,27.207,27.207,0,0,0,2.958,3.649,25.828,25.828,0,0,0,28.463,6.216,27.235,27.235,0,0,0,4.211-2.082A15.679,15.679,0,0,1,404.861,309.654Z" transform="translate(-366.77 -301.335)" fill="#fff" stroke="#000" stroke-linecap="round" stroke-linejoin="round" stroke-width="1.7"/>
        </g>
        <g id="Group_885" data-name="Group 885" transform="translate(22.931 10.607)">
          <path id="Path_762" data-name="Path 762" d="M390.666,208.513a.862.862,0,0,1,.075.229c.046.182.1.406.17.682.146.6.347,1.49.591,2.638a64.056,64.056,0,0,1,1.376,9.854,31.214,31.214,0,0,1-.395,6.88,22.143,22.143,0,0,1-2.745,7.42,29.39,29.39,0,0,1-5.711,6.615c-2.265,2.022-4.771,3.9-7.32,5.835-5.426,4.08-10.713,7.767-15.437,11.115s-8.893,6.354-12.226,8.876l-.107.08-.1-.082a73.209,73.209,0,0,1-6.689-6.019,18.786,18.786,0,0,1-1.566-1.848,6.07,6.07,0,0,1-.341-.527.708.708,0,0,1-.1-.189,8.109,8.109,0,0,1,.515.659,23.5,23.5,0,0,0,1.622,1.777,82.211,82.211,0,0,0,6.767,5.882h-.208c3.307-2.565,7.45-5.617,12.166-8.98s9.984-7.07,15.4-11.143c2.545-1.934,5.05-3.807,7.294-5.8a29.171,29.171,0,0,0,5.644-6.489,21.858,21.858,0,0,0,2.73-7.255,31.31,31.31,0,0,0,.45-6.791,69.853,69.853,0,0,0-1.214-9.831q-.315-1.682-.5-2.654c-.049-.28-.09-.508-.122-.692A.9.9,0,0,1,390.666,208.513Z" transform="translate(-340.143 -208.513)" fill="#fff" stroke="#000" stroke-linecap="round" stroke-linejoin="round" stroke-width="1.7"/>
        </g>
      </g>
      <path id="Path_763" data-name="Path 763" d="M573.42,225.926c9.783-8.383,13.09-23.472,7.711-35.179l-13.777-1.422A19.654,19.654,0,0,0,577.371,169.5a26.3,26.3,0,0,1-30.077,5.539c-6.436-3.182-11.651-9.1-18.722-10.346-6.416-1.127-12.725,1.882-18.863,4.064s-13.583,3.386-18.669-.687c-4.031-3.228-5.281-8.885-5.018-14.042s1.753-10.19,2.072-15.344a34.858,34.858,0,0,0-11.158-27.177A26.446,26.446,0,0,0,435.415,98.3c-3.013,2.334-5.559,5.34-8.975,7.03-3.858,1.908-8.349,1.905-12.528,2.936s-8.564,3.8-9.013,8.077l-1.682,8.775c-.283.629-.581,1.25-.924,1.849-3.551,6.228-10.813,10.323-12.4,17.315-.889,3.921.215,8.164-1.107,11.961-1.739,5-7.134,7.807-9.647,12.461-3.45,6.392-1.109,17.589,4.407,22.316s16.9,9.728,24,11.238c1.925-7.386,3.627-15.282,5.281-23.366,2.9,2.78,5.935,5.436,8.958,8.06,7.916,6.873,15.992,13.859,21.482,22.791,10.432,16.973,10.608,39.466,23.739,54.448,2.574,2.938,5.7,5.553,9.438,6.685s8.168.535,10.934-2.224c3.262-3.254,3.684-8.742,7.294-11.6,4.8-3.805,11.81-.77,16.968,2.53,3.734,2.388,7.467,4.916,11.7,6.225s9.154,1.224,12.756-1.36,5.183-8.089,2.586-11.68c-1.039-1.436-2.593-2.439-3.622-3.881s-1.33-3.726.081-4.8c1.557-1.187,3.74-.041,5.427.952a32.275,32.275,0,0,0,46.935-17.455A26.8,26.8,0,0,1,573.42,225.926Z" transform="translate(-48.587 -92.828)"/>
      <g id="Group_887" data-name="Group 887" transform="translate(425.049 16.496)">
        <path id="Path_764" data-name="Path 764" d="M568.526,150.975a11.537,11.537,0,0,1,1.246,1.065,14.536,14.536,0,0,1,2.836,3.747,10.679,10.679,0,0,1,1.059,3.246,7.584,7.584,0,0,1-.468,4.026,7.664,7.664,0,0,1-2.961,3.592,5.79,5.79,0,0,1-2.43.874,5.524,5.524,0,0,1-2.695-.392c-3.575-1.456-5.368-5.587-9.235-7.428-3.767-1.993-8.582-2.128-13.209-1.07-4.679,1.071-9.134,3.575-13.69,6.133s-9.4,5.3-14.978,6.261a21.007,21.007,0,0,1-8.283-.057,16.029,16.029,0,0,1-3.832-1.423,14.89,14.89,0,0,1-3.233-2.4,18.277,18.277,0,0,1-4.147-6.564,29.766,29.766,0,0,1-1.7-7.246c-.51-4.837-.107-9.431-.06-13.7a40.213,40.213,0,0,0-1.168-11.766,27.045,27.045,0,0,0-1.838-4.823,27.761,27.761,0,0,0-2.335-3.974,29.557,29.557,0,0,0-4.927-5.493,31.961,31.961,0,0,0-3.763-2.778l-1.05-.621a2.639,2.639,0,0,1-.35-.226,2.561,2.561,0,0,1,.375.181l1.077.58a28.637,28.637,0,0,1,8.867,8.2,27.909,27.909,0,0,1,2.391,3.994,27.238,27.238,0,0,1,1.892,4.867,40.351,40.351,0,0,1,1.243,11.869c-.031,4.289-.415,8.879.1,13.647a29.408,29.408,0,0,0,1.687,7.127A17.789,17.789,0,0,0,499,166.8a14.326,14.326,0,0,0,3.124,2.31,15.547,15.547,0,0,0,3.706,1.373,20.553,20.553,0,0,0,8.085.049c5.471-.937,10.269-3.651,14.825-6.2s9.055-5.074,13.827-6.155a24.019,24.019,0,0,1,7.058-.6,18.752,18.752,0,0,1,3.366.544,15.324,15.324,0,0,1,3.082,1.2c3.993,1.958,5.792,6.105,9.174,7.469a5.17,5.17,0,0,0,4.824-.425,7.442,7.442,0,0,0,3.36-7.316,10.6,10.6,0,0,0-1-3.19,15.026,15.026,0,0,0-2.733-3.763c-.375-.382-.671-.664-.876-.847A2.61,2.61,0,0,1,568.526,150.975Z" transform="translate(-477.319 -109.956)" fill="#263238"/>
      </g>
      <g id="Group_888" data-name="Group 888" transform="translate(319.892 1.48)">
        <path id="Path_765" data-name="Path 765" d="M407.061,205.994s-.036-.147-.08-.435a7.738,7.738,0,0,0-.257-1.264,10.812,10.812,0,0,0-2.365-4.3,18.384,18.384,0,0,0-6.386-4.439c-2.793-1.275-6.253-1.9-10.054-2.615-3.766-.741-8.093-1.525-11.965-4.108a17.765,17.765,0,0,1-2.832-27.075c3.985-4.091,9.621-6.118,14.228-9.716a18.005,18.005,0,0,0,3.031-3.086,12.754,12.754,0,0,0,1.848-3.81c.765-2.734.7-5.6.963-8.38a18.694,18.694,0,0,1,.77-4.113,10.3,10.3,0,0,1,2.028-3.6,14.437,14.437,0,0,1,6.89-3.837c2.476-.718,4.935-1.166,7.262-1.808a19.786,19.786,0,0,0,6.34-2.836,24.37,24.37,0,0,0,4.756-4.449,53.182,53.182,0,0,0,3.586-4.875c2.127-3.223,3.949-6.234,5.887-8.64a27.813,27.813,0,0,1,5.619-5.545,15.6,15.6,0,0,1,4.433-2.282,10.749,10.749,0,0,1,1.688-.425c.009.035-.585.144-1.656.521a16.118,16.118,0,0,0-4.352,2.343,28.078,28.078,0,0,0-5.512,5.559c-1.906,2.407-3.7,5.415-5.812,8.663a53.2,53.2,0,0,1-3.585,4.928,24.674,24.674,0,0,1-4.815,4.542,20.182,20.182,0,0,1-6.459,2.919c-2.348.655-4.809,1.111-7.248,1.827a14,14,0,0,0-6.664,3.712,9.805,9.805,0,0,0-1.923,3.43,18.233,18.233,0,0,0-.743,4.007c-.258,2.749-.184,5.634-.972,8.47a13.26,13.26,0,0,1-1.923,3.97,18.492,18.492,0,0,1-3.123,3.182,66.123,66.123,0,0,1-7.405,4.706,32.026,32.026,0,0,0-6.782,4.96,17.329,17.329,0,0,0,2.712,26.389c3.763,2.537,8.038,3.343,11.8,4.1,3.788.735,7.28,1.392,10.1,2.707a18.406,18.406,0,0,1,6.42,4.567,10.653,10.653,0,0,1,2.316,4.4,6.672,6.672,0,0,1,.209,1.283C407.06,205.843,407.061,205.994,407.061,205.994Z" transform="translate(-368.132 -94.365)" fill="#263238"/>
      </g>
      <g id="Group_889" data-name="Group 889" transform="translate(421.402 14.339)">
        <path id="Path_766" data-name="Path 766" d="M487.846,120.029a2.294,2.294,0,0,1-.741-.189,17.405,17.405,0,0,1-1.926-.778,25.35,25.35,0,0,1-10.29-8.853,17.158,17.158,0,0,1-1.056-1.788,2.233,2.233,0,0,1-.3-.7c.072-.04.616.892,1.643,2.288a29.644,29.644,0,0,0,10.157,8.739C486.872,119.552,487.875,119.95,487.846,120.029Z" transform="translate(-473.533 -107.717)" fill="#455a64"/>
      </g>
      <g id="Group_890" data-name="Group 890" transform="translate(429.132 80.246)">
        <path id="Path_767" data-name="Path 767" d="M520.157,188.243c-.014.044-.6-.148-1.693-.384a27.856,27.856,0,0,0-4.674-.573,61.92,61.92,0,0,0-7,.2c-2.634.186-5.544.455-8.618.388a23.466,23.466,0,0,1-8.5-1.6,15.042,15.042,0,0,1-5.7-4.164,10.713,10.713,0,0,1-2.192-4.226,7.553,7.553,0,0,1-.2-1.282,1.519,1.519,0,0,1-.008-.453c.059-.007.087.618.4,1.683a11.141,11.141,0,0,0,2.274,4.049,15.052,15.052,0,0,0,5.609,3.966,23.6,23.6,0,0,0,8.335,1.523c3.035.066,5.932-.186,8.574-.348a56.112,56.112,0,0,1,7.049-.091,24.078,24.078,0,0,1,4.7.738c.542.152.958.283,1.234.393A1.533,1.533,0,0,1,520.157,188.243Z" transform="translate(-481.558 -176.149)" fill="#455a64"/>
      </g>
      <g id="Group_891" data-name="Group 891" transform="translate(423.616 97.928)">
        <path id="Path_768" data-name="Path 768" d="M576.707,232.716a1.391,1.391,0,0,1-.279.126,4.2,4.2,0,0,1-.859.274,6.753,6.753,0,0,1-3.449-.154,11.06,11.06,0,0,1-4.622-2.922,19.217,19.217,0,0,1-3.714-6.229c-1.053-2.466-1.931-5.3-3.65-7.92a20.778,20.778,0,0,0-3.058-3.731,24.714,24.714,0,0,0-4.085-3.09c-6.048-3.645-13.992-5.138-22.1-4.664-8.154.429-15.828,2.027-22.926,2.523A45.339,45.339,0,0,1,489.27,205a25.808,25.808,0,0,1-10.712-6.712,14.537,14.537,0,0,1-1.282-1.535,9.209,9.209,0,0,1-.833-1.2c-.194-.319-.348-.573-.468-.77a1.4,1.4,0,0,1-.143-.27,1.343,1.343,0,0,1,.188.244l.508.74a10.157,10.157,0,0,0,.867,1.168,15.248,15.248,0,0,0,1.307,1.492,26.09,26.09,0,0,0,10.684,6.51,45.419,45.419,0,0,0,18.541,1.806c7.059-.516,14.725-2.13,22.937-2.563,8.18-.478,16.227,1.039,22.369,4.77a25.09,25.09,0,0,1,4.151,3.167,21.1,21.1,0,0,1,3.1,3.825c1.741,2.689,2.6,5.549,3.628,8.009a19.088,19.088,0,0,0,3.588,6.17,10.98,10.98,0,0,0,4.477,2.93,6.879,6.879,0,0,0,3.37.243C576.318,232.875,576.693,232.676,576.707,232.716Z" transform="translate(-475.831 -194.509)" fill="#455a64"/>
      </g>
      <g id="Group_892" data-name="Group 892" transform="translate(357.796 22.061)">
        <path id="Path_769" data-name="Path 769" d="M422.7,120.318a7.2,7.2,0,0,0-7.34,6.4h0l-7.79,81.106c-1.346,11.4,13.57,35.855,25.793,37.2h0c12.343,1.362,13.549-4.619,15.153-15.426,2.68-18.055,3.568-24.848,3.562-24.744,0,0,15.893-.534,21.788-20.4,2.932-9.88,4.6-26.494,5.534-40.132.836-12.275-5.262-28.274-17.561-28.588Z" transform="translate(-407.489 -115.734)" fill="#fff" stroke="#000" stroke-linecap="round" stroke-linejoin="round" stroke-width="1.7"/>
      </g>
      <g id="Group_894" data-name="Group 894" transform="translate(419.099 58.699)">
        <g id="Group_893" data-name="Group 893" transform="translate(0)">
          <path id="Path_770" data-name="Path 770" d="M476.382,156.486a2.625,2.625,0,0,1-2.856,2.3,2.511,2.511,0,0,1-2.374-2.7,2.626,2.626,0,0,1,2.853-2.3A2.513,2.513,0,0,1,476.382,156.486Z" transform="translate(-471.142 -153.776)" fill="#263238"/>
        </g>
      </g>
      <g id="Group_897" data-name="Group 897" transform="translate(415.079 53.748)">
        <g id="Group_896" data-name="Group 896" transform="translate(0)">
          <g id="Group_895" data-name="Group 895">
            <path id="Path_771" data-name="Path 771" d="M477.329,151.049c-.3.364-2.387-.966-5.2-.763-2.817.163-4.784,1.756-5.114,1.432-.161-.143.127-.782.982-1.5a7.2,7.2,0,0,1,4.064-1.569,6.912,6.912,0,0,1,4.172,1.033C477.142,150.289,477.478,150.886,477.329,151.049Z" transform="translate(-466.968 -148.636)" fill="#263238"/>
          </g>
        </g>
      </g>
      <g id="Group_900" data-name="Group 900" transform="translate(389.191 59.967)">
        <g id="Group_899" data-name="Group 899">
          <g id="Group_898" data-name="Group 898">
            <path id="Path_772" data-name="Path 772" d="M450.455,158c-.335.333-2.284-1.194-5.106-1.266-2.819-.113-4.933,1.281-5.229.926-.146-.157.2-.766,1.124-1.4a7.208,7.208,0,0,1,4.2-1.166,6.929,6.929,0,0,1,4.052,1.436C450.34,157.224,450.618,157.851,450.455,158Z" transform="translate(-440.087 -155.093)" fill="#263238"/>
          </g>
        </g>
      </g>
      <g id="Group_901" data-name="Group 901" transform="translate(376.166 100.353)">
        <path id="Path_773" data-name="Path 773" d="M451.917,207.717a49.655,49.655,0,0,1-25.354-10.69s4.151,14.717,24.711,15.493Z" transform="translate(-426.563 -197.027)" fill="#de5838"/>
      </g>
      <g id="Group_903" data-name="Group 903" transform="translate(404.818 54.285)">
        <g id="Group_902" data-name="Group 902">
          <path id="Path_774" data-name="Path 774" d="M456.313,172.7c.008-.161,1.788-.233,4.657-.222.725.019,1.421-.034,1.605-.5a3.665,3.665,0,0,0-.2-2.183q-.666-2.727-1.4-5.724c-1.916-8.139-3.2-14.794-2.874-14.869s2.149,6.463,4.063,14.6q.683,3.006,1.3,5.745a4.169,4.169,0,0,1,0,2.855,1.806,1.806,0,0,1-1.314.891,4.845,4.845,0,0,1-1.237.009C458.066,173.076,456.3,172.856,456.313,172.7Z" transform="translate(-456.313 -149.193)" fill="#263238"/>
        </g>
      </g>
      <g id="Group_910" data-name="Group 910" transform="translate(387.106 54.437)">
        <g id="Group_909" data-name="Group 909">
          <g id="Group_908" data-name="Group 908">
            <g id="Group_907" data-name="Group 907">
              <g id="Group_906" data-name="Group 906">
                <g id="Group_905" data-name="Group 905">
                  <g id="Group_904" data-name="Group 904">
                    <path id="Path_775" data-name="Path 775" d="M450.769,152.961c-.446.685-3.11-.312-6.427-.679-3.311-.432-6.134-.1-6.406-.868-.116-.366.5-.963,1.724-1.441a11.233,11.233,0,0,1,9.776,1.178C450.51,151.906,450.968,152.633,450.769,152.961Z" transform="translate(-437.923 -149.351)" fill="#263238"/>
                  </g>
                </g>
              </g>
            </g>
          </g>
        </g>
      </g>
      <g id="Group_917" data-name="Group 917" transform="translate(415.391 49.696)">
        <g id="Group_916" data-name="Group 916">
          <g id="Group_915" data-name="Group 915">
            <g id="Group_914" data-name="Group 914">
              <g id="Group_913" data-name="Group 913">
                <g id="Group_912" data-name="Group 912">
                  <g id="Group_911" data-name="Group 911">
                    <path id="Path_776" data-name="Path 776" d="M476.924,147.109c-.463.665-2.441.1-4.78.189-2.341.006-4.293.651-4.783,0-.217-.316.063-.973.9-1.624a6.927,6.927,0,0,1,7.706-.155C476.822,146.139,477.126,146.786,476.924,147.109Z" transform="translate(-467.291 -144.429)" fill="#263238"/>
                  </g>
                </g>
              </g>
            </g>
          </g>
        </g>
      </g>
      <path id="Path_777" data-name="Path 777" d="M449.2,178.867a6.022,6.022,0,0,1,4.414-.922,3.448,3.448,0,0,1,2.056,1.068,4.35,4.35,0,0,1,.718,2.943,5.787,5.787,0,0,1-.274,1.832,2.381,2.381,0,0,1-1.177,1.377,3.259,3.259,0,0,1-1.884.1,7.366,7.366,0,0,1-2.976-1.077,3.693,3.693,0,0,1-1.661-2.6,2.5,2.5,0,0,1,1.49-2.563" transform="translate(-51.203 -95.966)" fill="#de5838"/>
      <g id="Group_918" data-name="Group 918" transform="translate(395.52 82.625)">
        <path id="Path_778" data-name="Path 778" d="M456.738,185.085c-.208.072-.577-.54-1.255-1.384a10.288,10.288,0,0,0-6.992-3.985c-1.072-.152-1.787-.159-1.83-.374-.043-.189.629-.569,1.848-.691a8.091,8.091,0,0,1,7.879,4.491C456.906,184.253,456.922,185.026,456.738,185.085Z" transform="translate(-446.659 -178.619)" fill="#263238"/>
      </g>
      <path id="Path_779" data-name="Path 779" d="M406.075,204.157c6.687-1.329,11.848-7.082,14.151-13.5s2.183-13.437,1.571-20.228a3.257,3.257,0,0,0-.916-2.389c-1.013-.78-2.466-.144-3.557.521a112.858,112.858,0,0,0-12.112,8.518c-3.58,2.885-7.129,6.21-8.5,10.6-2.108,6.734,2.353,14.776,9.181,16.552" transform="translate(-49.276 -95.591)"/>
      <g id="Group_926" data-name="Group 926" transform="translate(420.724 27.793)">
        <path id="Path_780" data-name="Path 780" d="M562.77,200.894,531.2,150.155,522.481,132.3s-2.781-3.687-5.672-6.838c-4.745-5.172-9.429-1.152-9.429-1.152a3.2,3.2,0,0,0-3.169-1.954,5.394,5.394,0,0,0-4.365,2.225s-1.291-1.437-4.873-1.658a3.762,3.762,0,0,0-2.269.733c-1.17-1.031-3.328-2.519-5.4-1.764-1.619.59-11.433,8.051-13.849,11.809-1.193,1.856,1.026,4.268,4.008,3.139a25.929,25.929,0,0,0,3.58-1.457,9.713,9.713,0,0,0,2.427-1.951s-2.474,4.336-.007,5.1a5.674,5.674,0,0,0,4.646-1.128c.94-.8,2.031-1.825,3.06-2.833-.04.058-.083.115-.121.171-1.368,2.022,2.2,5.02,3.927,3.8a25.906,25.906,0,0,0,2.3-1.823c4.006,2.908-1.558,6.634-3.907,6.442a72.537,72.537,0,0,0-10.864-.036c-2.044.171-3.867.655-4.967,1.787-1.325,1.365.064,4.239,1.945,4.528,3.457.534,7.866,1.3,12.452,2.482,5.4,1.39,19.521,5.979,19.521,5.979l1.377,1.122,19.2,46.816-32.869,6.96L491.83,254.44l59.331-16.1C564.531,231.4,570.861,213.606,562.77,200.894Z" transform="translate(-472.84 -121.686)" fill="#fff" stroke="#000" stroke-linecap="round" stroke-linejoin="round" stroke-width="1.7"/>
        <g id="Group_919" data-name="Group 919" transform="translate(4.371 19.599)">
          <path id="Path_781" data-name="Path 781" d="M511.617,158.651a4.416,4.416,0,0,1-.753-.179l-2.13-.607-7.8-2.322-5.383-1.626c-1.931-.6-4-1.214-6.2-1.773a58.975,58.975,0,0,0-6.951-1.437,12.086,12.086,0,0,1-3.771-.68,2.649,2.649,0,0,1-.848-.632,1.439,1.439,0,0,1-.287-.515l-.074-.514a4.962,4.962,0,0,1,.126-2.045,2.825,2.825,0,0,1,1.365-1.58,10.49,10.49,0,0,1,1.838-.729,12.34,12.34,0,0,1,3.808-.467c2.5.034,4.863.379,7.118.288a22.879,22.879,0,0,0,3.269-.321c1.048-.19,2.053-.464,3.034-.717a16.1,16.1,0,0,1,5.611-.715,15.279,15.279,0,0,1,4.527,1.152,28.527,28.527,0,0,1,3.156,1.55c.841.471,1.475.864,1.906,1.132a4.357,4.357,0,0,1,.641.434,4.475,4.475,0,0,1-.691-.348l-1.949-1.047a31.163,31.163,0,0,0-3.167-1.46,15.242,15.242,0,0,0-4.449-1.059,15.926,15.926,0,0,0-5.48.764c-.975.26-1.987.545-3.059.747a22.917,22.917,0,0,1-3.334.35c-2.3.1-4.688-.234-7.135-.259a11.923,11.923,0,0,0-3.652.451c-1.178.384-2.521.8-2.881,1.993a4.489,4.489,0,0,0-.1,1.829l.061.447a.985.985,0,0,0,.186.32,2.161,2.161,0,0,0,.686.5,11.952,11.952,0,0,0,3.613.64,58.082,58.082,0,0,1,7,1.477c2.205.573,4.272,1.207,6.2,1.82l5.366,1.686,7.762,2.474,2.1.7A4.553,4.553,0,0,1,511.617,158.651Z" transform="translate(-477.367 -142.036)" fill="#fff" stroke="#000" stroke-linecap="round" stroke-linejoin="round" stroke-width="1.7"/>
        </g>
        <g id="Group_920" data-name="Group 920" transform="translate(0 0.279)">
          <path id="Path_782" data-name="Path 782" d="M487.117,121.979c.049.08-1.488.971-3.761,2.692a39.015,39.015,0,0,0-3.777,3.271c-1.346,1.314-2.766,2.851-4.436,4.285a4.627,4.627,0,0,0-1.778,2.378,1.679,1.679,0,0,0,1.163,2.064,5.044,5.044,0,0,0,2.541.05,12.253,12.253,0,0,0,2.21-.634,16.234,16.234,0,0,0,3.908-2.373,4.115,4.115,0,0,1-.869.9,11.313,11.313,0,0,1-2.9,1.8,11.9,11.9,0,0,1-2.265.714,5.373,5.373,0,0,1-2.77-.02,2.148,2.148,0,0,1-1.5-2.6,5.034,5.034,0,0,1,1.932-2.657c1.646-1.413,3.065-2.929,4.443-4.239a34.558,34.558,0,0,1,3.888-3.223c1.169-.837,2.165-1.438,2.858-1.84A5.945,5.945,0,0,1,487.117,121.979Z" transform="translate(-472.829 -121.976)" fill="#fff" stroke="#000" stroke-linecap="round" stroke-linejoin="round" stroke-width="1.7"/>
        </g>
        <g id="Group_921" data-name="Group 921" transform="translate(9.001 1.249)">
          <path id="Path_783" data-name="Path 783" d="M499.5,126a11.442,11.442,0,0,1-1.112,1.326c-.8.883-1.873,2.06-3.171,3.486l-4.748,5.126a11.472,11.472,0,0,1-3.335,2.545,5.091,5.091,0,0,1-2.206.551,3.072,3.072,0,0,1-2.219-.886,2.15,2.15,0,0,1-.526-1.2,3.705,3.705,0,0,1,.129-1.238,7.286,7.286,0,0,1,1.02-2.105l.008-.011.017-.018c1.7-1.8,3.277-3.5,4.7-5.057,1.445-1.534,2.832-2.785,3.961-3.849a8.077,8.077,0,0,1,1.647-1.327,4.05,4.05,0,0,1,1.559-.338c.849-.06,1.353.017,1.31.109a4.083,4.083,0,0,0-1.293.062,4.155,4.155,0,0,0-1.456.385,8.262,8.262,0,0,0-1.547,1.339c-1.1,1.1-2.459,2.371-3.868,3.911-1.383,1.558-2.964,3.287-4.663,5.111l.024-.029a6.823,6.823,0,0,0-.936,1.948,3.192,3.192,0,0,0-.112,1.056,1.636,1.636,0,0,0,.4.916,2.6,2.6,0,0,0,1.851.724,4.639,4.639,0,0,0,1.995-.5,11.192,11.192,0,0,0,3.2-2.413l4.828-5.054,3.287-3.379.912-.9C499.372,126.09,499.49,125.99,499.5,126Z" transform="translate(-482.175 -122.983)" fill="#fff" stroke="#000" stroke-linecap="round" stroke-linejoin="round" stroke-width="1.7"/>
        </g>
        <g id="Group_922" data-name="Group 922" transform="translate(37.536 8.3)">
          <path id="Path_784" data-name="Path 784" d="M515.35,130.919c.05.037-.044.293-.38.561a2.04,2.04,0,0,1-2.965-.518c-.224-.366-.227-.64-.168-.657s.192.185.447.438a2.1,2.1,0,0,0,2.5.436C515.107,131.028,515.292,130.871,515.35,130.919Z" transform="translate(-511.804 -130.304)" fill="#fff" stroke="#000" stroke-linecap="round" stroke-linejoin="round" stroke-width="1.7"/>
        </g>
        <g id="Group_923" data-name="Group 923" transform="translate(39.946 9.5)">
          <path id="Path_785" data-name="Path 785" d="M516.6,135.383c-.1.085-.828-.64-1.464-1.719a4.114,4.114,0,0,1-.8-2.111c.13-.055.612.812,1.232,1.856S516.71,135.295,516.6,135.383Z" transform="translate(-514.306 -131.55)" fill="#fff" stroke="#000" stroke-linecap="round" stroke-linejoin="round" stroke-width="1.7"/>
        </g>
        <g id="Group_924" data-name="Group 924" transform="translate(42.662 16.057)">
          <path id="Path_786" data-name="Path 786" d="M518.831,152.855a6.425,6.425,0,0,1-.912-2.005,16.458,16.458,0,0,1,.14-10.509,6.453,6.453,0,0,1,.965-1.981,25.9,25.9,0,0,0-1.395,7.231A25.9,25.9,0,0,0,518.831,152.855Z" transform="translate(-517.126 -138.358)" fill="#fff" stroke="#000" stroke-linecap="round" stroke-linejoin="round" stroke-width="1.7"/>
        </g>
        <g id="Group_925" data-name="Group 925" transform="translate(58.896 84.293)">
          <path id="Path_787" data-name="Path 787" d="M545.38,222.2c-.092.011-.188-1.023-.692-2.59a15.7,15.7,0,0,0-1.138-2.644,15.9,15.9,0,0,0-4.615-5.256,15.833,15.833,0,0,0-2.475-1.471c-1.489-.7-2.5-.928-2.478-1.02a2.042,2.042,0,0,1,.724.1,10.107,10.107,0,0,1,1.9.6,13.884,13.884,0,0,1,2.6,1.418,14.966,14.966,0,0,1,4.756,5.415,13.856,13.856,0,0,1,1.07,2.761,10.144,10.144,0,0,1,.352,1.959A2.059,2.059,0,0,1,545.38,222.2Z" transform="translate(-533.982 -209.209)" fill="#fff" stroke="#000" stroke-linecap="round" stroke-linejoin="round" stroke-width="1.7"/>
        </g>
      </g>
      <g id="Group_932" data-name="Group 932" transform="translate(236.762 140.9)">
        <path id="Path_788" data-name="Path 788" d="M425.917,316.062a13.679,13.679,0,0,0-8.018,1.022c-4.29-1.9-9.573,1.376-9.573,1.376-1.553-.742-10.895,5.362-10.895,5.362l-11.639,5.492-62.15-46.176,17.618-18.326-24.683-25.685-28.936,29.764a21.857,21.857,0,0,0-5.768,14.009,28.508,28.508,0,0,0,15.83,27.008l73.229,37.559a85.5,85.5,0,0,0,16.65-2.589c6.318-1.65,17.115-6.442,17.115-6.442s-.03.327,1.9,4.069c3.474,6.734,8.575-.532,8.575-.532a13.873,13.873,0,0,0,1.976,3.289c4.4,4.267,7.452-1.464,7.452-1.464s1.321,2.3,5.256.59-.567-13.543-.567-13.543,1.318,2.573,3.873-.684S430.128,316.938,425.917,316.062Z" transform="translate(-281.817 -239.127)" fill="#fff" stroke="#000" stroke-linecap="round" stroke-linejoin="round" stroke-width="1.7"/>
        <g id="Group_927" data-name="Group 927" transform="translate(135.309 78.123)">
          <path id="Path_789" data-name="Path 789" d="M422.311,320.669a2.051,2.051,0,0,1,.805-.31,4.78,4.78,0,0,1,2.359.07,9.131,9.131,0,0,1,3.114,1.592,12.032,12.032,0,0,1,1.549,1.382,8.792,8.792,0,0,1,1.212,1.882,47.08,47.08,0,0,1,2.846,7.135c.285.941.484,1.71.6,2.247a2.8,2.8,0,0,1,.132.848,30.8,30.8,0,0,1-1.073-2.984,63.977,63.977,0,0,0-2.956-7.019,8.626,8.626,0,0,0-1.135-1.784,12.3,12.3,0,0,0-1.46-1.341,9.354,9.354,0,0,0-2.929-1.616A6.438,6.438,0,0,0,422.311,320.669Z" transform="translate(-422.311 -320.244)" fill="#fff" stroke="#000" stroke-linecap="round" stroke-linejoin="round" stroke-width="1.7"/>
        </g>
        <g id="Group_928" data-name="Group 928" transform="translate(126.12 81.796)">
          <path id="Path_790" data-name="Path 790" d="M429.436,346.933a5.66,5.66,0,0,1-.541-1.067c-.364-.791-.82-1.778-1.361-2.951-1.144-2.493-2.822-5.9-4.424-9.784a25.835,25.835,0,0,0-2.529-5.263,8.7,8.7,0,0,0-3.573-2.981,5.783,5.783,0,0,0-3.086-.551c-.746.1-1.132.3-1.152.252-.008-.015.084-.07.267-.163a3.228,3.228,0,0,1,.853-.282,5.648,5.648,0,0,1,3.257.418,8.834,8.834,0,0,1,3.81,3.039,24.744,24.744,0,0,1,2.617,5.341c1.593,3.863,3.221,7.294,4.284,9.829.538,1.266.952,2.3,1.217,3.021A5.284,5.284,0,0,1,429.436,346.933Z" transform="translate(-412.77 -324.057)" fill="#fff" stroke="#000" stroke-linecap="round" stroke-linejoin="round" stroke-width="1.7"/>
        </g>
        <g id="Group_929" data-name="Group 929" transform="translate(114.264 86.643)">
          <path id="Path_791" data-name="Path 791" d="M400.46,332.261a4.992,4.992,0,0,1,.991-.553l2.779-1.338c.6-.275,1.219-.585,1.944-.9a5.443,5.443,0,0,1,2.5-.363,5.191,5.191,0,0,1,2.611,1,8.273,8.273,0,0,1,1.913,2.279c.527.862.941,1.755,1.351,2.589s.836,1.627,1.253,2.376c.839,1.5,1.628,2.837,2.212,4.008a23.525,23.525,0,0,1,1.234,2.839,4.346,4.346,0,0,1,.309,1.094c-.084.031-.6-1.5-1.857-3.768-.618-1.139-1.434-2.452-2.3-3.946-.431-.747-.87-1.544-1.291-2.386s-.829-1.712-1.34-2.546a8,8,0,0,0-1.78-2.148,4.784,4.784,0,0,0-2.362-.929,5.09,5.09,0,0,0-2.3.291c-.689.276-1.352.581-1.947.831l-2.844,1.192A4.89,4.89,0,0,1,400.46,332.261Z" transform="translate(-400.46 -329.09)" fill="#fff" stroke="#000" stroke-linecap="round" stroke-linejoin="round" stroke-width="1.7"/>
        </g>
        <g id="Group_930" data-name="Group 930" transform="translate(92.886 84.69)">
          <path id="Path_792" data-name="Path 792" d="M400.991,327.067a3.916,3.916,0,0,1-.849.537c-.561.317-1.381.761-2.4,1.3-2.036,1.078-4.864,2.535-8,4.117s-5.992,2.989-8.07,3.985c-1.038.5-1.883.892-2.471,1.155a3.78,3.78,0,0,1-.938.361,4,4,0,0,1,.85-.535c.561-.316,1.381-.759,2.4-1.3,2.036-1.077,4.865-2.534,8-4.116s5.99-2.989,8.067-3.986c1.038-.5,1.883-.894,2.471-1.157A3.853,3.853,0,0,1,400.991,327.067Z" transform="translate(-378.262 -327.062)" fill="#fff" stroke="#000" stroke-linecap="round" stroke-linejoin="round" stroke-width="1.7"/>
        </g>
        <g id="Group_931" data-name="Group 931" transform="translate(28.234 43.244)">
          <path id="Path_793" data-name="Path 793" d="M325.552,284.893a24.5,24.5,0,0,0-14.418,1.706,6.705,6.705,0,0,1,1.91-1.074,18.42,18.42,0,0,1,10.4-1.231A6.689,6.689,0,0,1,325.552,284.893Z" transform="translate(-311.133 -284.028)" fill="#fff" stroke="#000" stroke-linecap="round" stroke-linejoin="round" stroke-width="1.7"/>
        </g>
      </g>
      <g id="Group_936" data-name="Group 936" transform="translate(328.943 14.342)">
        <path id="Path_794" data-name="Path 794" d="M465.667,111.7a193.9,193.9,0,0,0-45.773,4.833c-3.477.793-7.153,1.813-9.5,4.493-2.489,2.836-2.928,6.874-3.254,10.633l-1.19,13.724a31.127,31.127,0,0,1-2.193,3.271c-3.621,4.73-8.234,8.673-11.526,13.636s-5.112,11.552-2.431,16.872c1.623,3.218,4.629,5.485,6.825,8.341,3.724,4.842,4.941,11.087,7.119,16.794s6.1,11.53,12.1,12.676c2.86.547,5.833-.06,8.714.362,4.307.63,7.923,3.451,11.351,6.133s7.133,5.428,11.464,5.859,9.293-2.5,9.383-6.853a10.182,10.182,0,0,1-10.471-.294c-2.525-1.66-4.152-4.357-6.321-6.461-5.32-5.161-13.9-6.8-17.6-13.219-2.929-5.08-1.766-11.44-.438-17.151,1.153-4.953,2.319-10.322.892-15.078a17.307,17.307,0,0,0,.177-2.309c.037-5.067-1.97-10.5.388-14.981,3.119-5.929,12.116-6.676,15.269-12.587,1.833-3.435,1.189-7.828,3.192-11.167,1.884-3.14,5.647-4.589,9.225-5.366s7.351-1.137,10.514-2.981S467.1,115.075,465.667,111.7Z" transform="translate(-377.935 -107.866)"/>
        <g id="Group_933" data-name="Group 933" transform="translate(39.287 56.154)">
          <path id="Path_795" data-name="Path 795" d="M478.437,217.044a1.165,1.165,0,0,1-.146.237l-.472.67a13.433,13.433,0,0,1-2.216,2.242,14.991,14.991,0,0,1-4.395,2.359,15.235,15.235,0,0,1-6.555.76,13.759,13.759,0,0,1-7.373-3.021c-2.3-1.764-4.338-4.1-6.927-5.966a9.939,9.939,0,0,0-4.413-1.852,9.673,9.673,0,0,0-4.909.891,24.7,24.7,0,0,1-5.1,1.76,8.969,8.969,0,0,1-5.485-.976,27.523,27.523,0,0,1-4.629-3.071,36.882,36.882,0,0,1-4.066-3.533,12.721,12.721,0,0,1-2.89-4.358,8.917,8.917,0,0,1-.328-5,27.229,27.229,0,0,1,1.455-4.519c.557-1.422,1.037-2.816,1.465-4.18a56.68,56.68,0,0,0,2.4-19.234c-.061-1.36-.147-2.415-.22-3.129-.03-.334-.053-.6-.072-.814a1.229,1.229,0,0,1-.008-.279,1.088,1.088,0,0,1,.059.273c.032.21.071.477.121.809.1.712.223,1.766.314,3.13a54.1,54.1,0,0,1-.467,11.553,56.351,56.351,0,0,1-1.734,7.812c-.422,1.375-.9,2.79-1.451,4.217a27.139,27.139,0,0,0-1.413,4.45,8.456,8.456,0,0,0,.325,4.749,12.257,12.257,0,0,0,2.795,4.184,36.62,36.62,0,0,0,4.017,3.479,27.161,27.161,0,0,0,4.544,3.015,8.471,8.471,0,0,0,5.186.933,24.561,24.561,0,0,0,5-1.723A10.139,10.139,0,0,1,446,212a10.374,10.374,0,0,1,4.623,1.951c2.646,1.927,4.668,4.268,6.916,6.015a13.423,13.423,0,0,0,7.155,3,15.407,15.407,0,0,0,10.792-2.921A17.33,17.33,0,0,0,478.437,217.044Z" transform="translate(-418.323 -166.026)"/>
        </g>
        <g id="Group_934" data-name="Group 934" transform="translate(0.777)">
          <path id="Path_796" data-name="Path 796" d="M380.74,184.263a9.716,9.716,0,0,1-.773-1.062,10.872,10.872,0,0,1-1.363-3.509,14.363,14.363,0,0,1,.094-5.952,18.134,18.134,0,0,1,3.334-7.142,33.3,33.3,0,0,1,6.95-6.574c2.764-2.056,5.9-3.971,9.033-6.205a33.091,33.091,0,0,0,8.572-8.327,21.356,21.356,0,0,0,2.6-5.748c.621-2.062,1.045-4.219,1.543-6.393a33.82,33.82,0,0,1,1.948-6.341,14.3,14.3,0,0,1,3.784-5.232,16.029,16.029,0,0,1,5.463-3.007,25.018,25.018,0,0,1,5.855-1.158,66.7,66.7,0,0,1,10.975.348,51.3,51.3,0,0,0,9.5.123,20.2,20.2,0,0,0,7.443-2.217,14.87,14.87,0,0,0,4.56-3.679,11.22,11.22,0,0,0,1.844-3.223c.274-.808.375-1.251.4-1.244a9.377,9.377,0,0,1-.305,1.277,10.788,10.788,0,0,1-1.787,3.312,14.872,14.872,0,0,1-4.58,3.8,20.32,20.32,0,0,1-7.537,2.323,50.993,50.993,0,0,1-9.567-.061,67.092,67.092,0,0,0-10.9-.3,24.66,24.66,0,0,0-5.743,1.152,15.576,15.576,0,0,0-5.294,2.924,13.823,13.823,0,0,0-3.649,5.064,33.489,33.489,0,0,0-1.915,6.25c-.5,2.165-.923,4.332-1.554,6.425A21.809,21.809,0,0,1,407,145.761a33.4,33.4,0,0,1-8.713,8.434c-3.159,2.238-6.3,4.135-9.055,6.163a33.244,33.244,0,0,0-6.915,6.456,17.98,17.98,0,0,0-3.342,6.987,14.361,14.361,0,0,0-.176,5.854A12.032,12.032,0,0,0,380.74,184.263Z" transform="translate(-378.337 -107.72)"/>
        </g>
        <g id="Group_935" data-name="Group 935" transform="translate(0 17.277)">
          <path id="Path_797" data-name="Path 797" d="M383.53,189.983a21.274,21.274,0,0,1-2.961-2.836A13.527,13.527,0,0,1,378,183.068a6.711,6.711,0,0,1-.439-3.01,6.012,6.012,0,0,1,1.3-3.157c1.557-1.91,4.14-2.937,6.848-3.508,1.364-.287,2.779-.508,4.2-.856a12.167,12.167,0,0,0,4.1-1.707A9.987,9.987,0,0,0,397,167.292a32.323,32.323,0,0,0,1.846-4.593,32.772,32.772,0,0,1,1.963-4.823,10.23,10.23,0,0,1,3.616-4,17.891,17.891,0,0,1,5.015-1.957c1.7-.439,3.39-.8,4.978-1.337a16.117,16.117,0,0,0,7.65-5.633,58.56,58.56,0,0,0,4.745-7.421,41.819,41.819,0,0,1,4.324-6.414,16.475,16.475,0,0,1,4.945-4.033,12.522,12.522,0,0,1,4.614-1.392,8.752,8.752,0,0,1,3.036.248,6,6,0,0,1,1,.351c-.009.027-.353-.1-1.026-.251a9.156,9.156,0,0,0-2.994-.153,12.533,12.533,0,0,0-4.5,1.446,16.332,16.332,0,0,0-4.806,4.015,42.131,42.131,0,0,0-4.235,6.391,58.067,58.067,0,0,1-4.744,7.5,19.989,19.989,0,0,1-3.4,3.435,14.566,14.566,0,0,1-4.454,2.376c-1.626.554-3.324.916-5.012,1.353a17.488,17.488,0,0,0-4.874,1.9,9.74,9.74,0,0,0-3.443,3.811,32.488,32.488,0,0,0-1.938,4.746,32.491,32.491,0,0,1-1.888,4.658,10.45,10.45,0,0,1-3.145,3.694,12.581,12.581,0,0,1-4.264,1.755c-1.449.348-2.871.56-4.221.835-2.668.54-5.174,1.534-6.657,3.324a5.691,5.691,0,0,0-1.257,2.966,6.437,6.437,0,0,0,.385,2.882,13.616,13.616,0,0,0,2.456,4.047c.846,1,1.571,1.728,2.065,2.213l.565.551A1.057,1.057,0,0,1,383.53,189.983Z" transform="translate(-377.531 -125.658)"/>
        </g>
      </g>
      <g id="Group_937" data-name="Group 937" transform="translate(438.765 33.728)">
        <path id="Path_798" data-name="Path 798" d="M506.293,127.85a3.048,3.048,0,0,1-.5.745c-.347.458-.863,1.109-1.521,1.9-1.315,1.577-3.2,3.7-5.413,5.921-1.1,1.073-2.132,2.287-3.548,2.733a3.1,3.1,0,0,1-2.033-.022,2.574,2.574,0,0,1-1.307-1.2,3.943,3.943,0,0,1-.361-2.449,2.3,2.3,0,0,1,.228-.872,4.745,4.745,0,0,1-.034.889,4.036,4.036,0,0,0,.475,2.256,2.228,2.228,0,0,0,1.147.985,2.7,2.7,0,0,0,1.744-.029c1.226-.4,2.224-1.556,3.332-2.647,2.2-2.213,4.122-4.288,5.5-5.8A25.92,25.92,0,0,1,506.293,127.85Z" transform="translate(-491.561 -127.848)" fill="#fff" stroke="#000" stroke-linecap="round" stroke-linejoin="round" stroke-width="1.7"/>
      </g>
      <g id="Group_938" data-name="Group 938" transform="translate(447.728 33.731)">
        <path id="Path_799" data-name="Path 799" d="M513.993,127.854a3.49,3.49,0,0,1-.58.751c-.4.461-.982,1.116-1.714,1.919l-2.59,2.8-1.542,1.643a12.989,12.989,0,0,1-1.809,1.67,4.581,4.581,0,0,1-2.347.93,2.425,2.425,0,0,1-2.186-.953,1.853,1.853,0,0,1-.357-1.118,2.178,2.178,0,0,1,.328-1.033c.354-.574.72-1.019,1.037-1.467.643-.875,1.171-1.579,1.546-2.058a3.471,3.471,0,0,1,.622-.716,3.448,3.448,0,0,1-.463.827c-.325.514-.808,1.249-1.414,2.151-.293.451-.664.944-.965,1.466a1.448,1.448,0,0,0,.04,1.677,1.955,1.955,0,0,0,1.78.734,4.151,4.151,0,0,0,2.086-.847,13.032,13.032,0,0,0,1.745-1.6l1.563-1.623,2.668-2.728c.765-.771,1.39-1.39,1.83-1.81A3.471,3.471,0,0,1,513.993,127.854Z" transform="translate(-500.867 -127.852)" fill="#fff" stroke="#000" stroke-linecap="round" stroke-linejoin="round" stroke-width="1.7"/>
      </g>
    </g>
    <g id="Plants" transform="translate(33.369 158.044)">
      <g id="Group_940" data-name="Group 940" transform="translate(557.09 254.154)">
        <path id="Path_800" data-name="Path 800" d="M618.911,433.726a12.2,12.2,0,0,1,19.825-3.433,15.817,15.817,0,0,1-8.865,6.812,9.624,9.624,0,0,1-10.96-3.379" transform="translate(-612.068 -426.619)" fill="#e8505b"/>
        <g id="Group_939" data-name="Group 939" transform="translate(0 5.249)">
          <path id="Path_801" data-name="Path 801" d="M611.806,435.508a12.194,12.194,0,0,1,2.768-.863c1.74-.425,4.165-.9,6.856-1.344s5.138-.776,6.913-.985a15.549,15.549,0,0,1,2.887-.223,17.545,17.545,0,0,1-2.837.573l-6.881,1.129c-2.686.443-5.113.863-6.863,1.2A26.02,26.02,0,0,1,611.806,435.508Z" transform="translate(-611.806 -432.069)" fill="#263238"/>
        </g>
      </g>
      <g id="Group_944" data-name="Group 944" transform="translate(202.397 173.747)">
        <path id="Path_802" data-name="Path 802" d="M261.264,370.691a16.041,16.041,0,0,1-2.874,26.662c-3.536-9.06-4.894-18.813,2.874-26.662" transform="translate(-243.967 -344.148)" fill="#e8505b"/>
        <g id="Group_942" data-name="Group 942">
          <path id="Path_803" data-name="Path 803" d="M275.392,377.9a20.758,20.758,0,0,0,30,17.445c-6.735-10.633-15.861-19.527-30-17.445" transform="translate(-244.698 -344.402)" fill="#e8505b"/>
          <g id="Group_941" data-name="Group 941">
            <path id="Path_804" data-name="Path 804" d="M243.523,343.131a3.217,3.217,0,0,1,.447.48l1.2,1.436c1.029,1.259,2.518,3.078,4.4,5.289,3.756,4.432,9.066,10.459,15.311,16.748,3.133,3.136,6.2,6.035,9.062,8.6,2.88,2.539,5.543,4.744,7.852,6.5a59.394,59.394,0,0,0,5.674,3.863c1.394.827,2.229,1.17,2.2,1.225a3.169,3.169,0,0,1-.61-.235,15.014,15.014,0,0,1-1.689-.82,50.983,50.983,0,0,1-5.79-3.749c-2.346-1.728-5.042-3.912-7.947-6.439-2.883-2.552-5.971-5.448-9.111-8.591-6.259-6.3-11.537-12.381-15.229-16.876-1.853-2.242-3.3-4.1-4.285-5.394l-1.129-1.495A3.3,3.3,0,0,1,243.523,343.131Z" transform="translate(-243.522 -343.131)" fill="#263238"/>
          </g>
        </g>
        <g id="Group_943" data-name="Group 943" transform="translate(14.054 16.371)">
          <path id="Path_805" data-name="Path 805" d="M260.609,384c-.084-.02.237-1.356.511-3.544a37.458,37.458,0,0,0-1.768-16.965c-.72-2.085-1.31-3.325-1.231-3.362a3.6,3.6,0,0,1,.492.833,23.494,23.494,0,0,1,1.072,2.407,33.092,33.092,0,0,1,1.787,17.137,23.483,23.483,0,0,1-.553,2.577A3.563,3.563,0,0,1,260.609,384Z" transform="translate(-258.115 -360.128)" fill="#263238"/>
        </g>
      </g>
      <g id="Group_946" data-name="Group 946" transform="translate(641.533)">
        <path id="Path_806" data-name="Path 806" d="M701.927,181.808a12.2,12.2,0,0,1,6.38-19.082,15.82,15.82,0,0,1,1.792,11.036,9.624,9.624,0,0,1-8.172,8.046" transform="translate(-699.485 -162.726)" fill="#e8505b"/>
        <g id="Group_945" data-name="Group 945" transform="translate(0.575 7.135)">
          <path id="Path_807" data-name="Path 807" d="M700.094,188.856a12.2,12.2,0,0,1,.555-2.846c.451-1.734,1.182-4.1,2.067-6.674s1.755-4.892,2.412-6.553a15.623,15.623,0,0,1,1.174-2.648,17.628,17.628,0,0,1-.841,2.77c-.633,1.836-1.41,4.1-2.27,6.593-.884,2.574-1.665,4.91-2.2,6.61A25.726,25.726,0,0,1,700.094,188.856Z" transform="translate(-700.081 -170.135)" fill="#263238"/>
        </g>
      </g>
      <g id="Group_953" data-name="Group 953" transform="translate(573.083 61.006)">
        <g id="Group_949" data-name="Group 949">
          <path id="Path_808" data-name="Path 808" d="M657.918,255.8a23.594,23.594,0,0,1,25.242-29.611c1.337,7.285-.922,14.758-4.766,21.089-4.532,7.463-13.548,10.624-20.475,8.522" transform="translate(-629.472 -226.07)" fill="#e8505b"/>
          <g id="Group_947" data-name="Group 947" transform="translate(0 12.083)">
            <path id="Path_809" data-name="Path 809" d="M628.413,284.769a3.257,3.257,0,0,1,.409-.516l1.247-1.416c1.1-1.21,2.719-2.944,4.738-5.062,4.038-4.239,9.684-10.029,15.96-16.382s12-12.071,16.159-16.19l4.947-4.855,1.365-1.3a3.2,3.2,0,0,1,.5-.43,3.3,3.3,0,0,1-.429.5l-1.3,1.368-4.835,4.968-16.053,16.292-16.062,16.276-4.852,4.949-1.315,1.35A3.246,3.246,0,0,1,628.413,284.769Z" transform="translate(-628.412 -238.616)" fill="#263238"/>
          </g>
          <g id="Group_948" data-name="Group 948" transform="translate(27.664)" opacity="0.3">
            <path id="Path_810" data-name="Path 810" d="M657.918,255.8a23.594,23.594,0,0,1,25.242-29.611c1.337,7.285-.922,14.758-4.766,21.089-4.532,7.463-13.548,10.624-20.475,8.522" transform="translate(-657.136 -226.07)"/>
          </g>
        </g>
        <g id="Group_952" data-name="Group 952" transform="translate(7.435 8.9)">
          <path id="Path_811" data-name="Path 811" d="M643.987,259a14.483,14.483,0,0,1-3.014-23.693c3.859,2.4,6.319,6.516,7.6,10.877,1.515,5.14-.774,10.539-4.591,12.816" transform="translate(-636.132 -235.311)" fill="#e8505b"/>
          <g id="Group_950" data-name="Group 950" opacity="0.3">
            <path id="Path_812" data-name="Path 812" d="M643.987,259a14.483,14.483,0,0,1-3.014-23.693c3.859,2.4,6.319,6.516,7.6,10.877,1.515,5.14-.774,10.539-4.591,12.816" transform="translate(-636.132 -235.311)"/>
          </g>
          <g id="Group_951" data-name="Group 951" transform="translate(6.321 8.676)">
            <path id="Path_813" data-name="Path 813" d="M645.738,267.536a3.24,3.24,0,0,1-.3-.877c-.16-.574-.347-1.414-.547-2.458-.4-2.086-.832-4.988-1.214-8.2s-.651-6.133-.814-8.248a21.9,21.9,0,0,1-.143-3.432,24.826,24.826,0,0,1,.5,3.4c.261,2.24.592,5.081.958,8.224.381,3.208.755,6.109,1.066,8.2S645.812,267.517,645.738,267.536Z" transform="translate(-642.695 -244.319)" fill="#263238"/>
          </g>
        </g>
      </g>
      <g id="Group_956" data-name="Group 956" transform="translate(401.864 191.347)">
        <path id="Path_814" data-name="Path 814" d="M457.039,375.282a22.793,22.793,0,0,1,37.488-6.824c-10.922,8.468-23.664,14.248-37.488,6.824" transform="translate(-450.869 -361.405)" fill="#e8505b"/>
        <g id="Group_954" data-name="Group 954" transform="translate(6.17)" opacity="0.3">
          <path id="Path_815" data-name="Path 815" d="M457.039,375.282a22.793,22.793,0,0,1,37.488-6.824c-10.922,8.468-23.664,14.248-37.488,6.824" transform="translate(-457.039 -361.405)"/>
        </g>
        <g id="Group_955" data-name="Group 955" transform="translate(0 8.615)">
          <path id="Path_816" data-name="Path 816" d="M450.633,379a4.619,4.619,0,0,1,.867-.674c.574-.412,1.436-.963,2.526-1.6a48,48,0,0,1,18.638-6.147c1.256-.137,2.276-.207,2.982-.217a4.585,4.585,0,0,1,1.1.026c0,.085-1.551.182-4.034.542a55.674,55.674,0,0,0-18.511,6.105C451.988,378.219,450.68,379.067,450.633,379Z" transform="translate(-450.632 -370.349)" fill="#263238"/>
        </g>
      </g>
      <g id="Group_959" data-name="Group 959" transform="translate(148.868 78.12)">
        <path id="Path_817" data-name="Path 817" d="M193.432,245.449A17.6,17.6,0,0,1,218.468,260.9c-10.641-.785-20.939-4.052-25.036-15.454" transform="translate(-188.145 -243.839)" fill="#e8505b"/>
        <g id="Group_957" data-name="Group 957" transform="translate(5.287)" opacity="0.3">
          <path id="Path_818" data-name="Path 818" d="M193.432,245.449A17.6,17.6,0,0,1,218.468,260.9c-10.641-.785-20.939-4.052-25.036-15.454" transform="translate(-193.432 -243.839)"/>
        </g>
        <g id="Group_958" data-name="Group 958" transform="translate(0 0.346)">
          <path id="Path_819" data-name="Path 819" d="M187.942,244.216a2.821,2.821,0,0,1,.849.039c.543.053,1.324.176,2.282.369a36.4,36.4,0,0,1,13.883,6.109c.789.575,1.408,1.067,1.814,1.432s.625.573.6.6c-.051.063-1-.673-2.618-1.74a44.029,44.029,0,0,0-13.761-6.055C189.116,244.5,187.93,244.3,187.942,244.216Z" transform="translate(-187.942 -244.199)" fill="#263238"/>
        </g>
      </g>
      <g id="Group_961" data-name="Group 961" transform="translate(496.726 175.81)">
        <path id="Path_820" data-name="Path 820" d="M551.758,362.884A15.746,15.746,0,0,1,571.865,345.9c-3.628,8.831-9.273,16.677-20.107,16.987" transform="translate(-549.222 -345.273)" fill="#e8505b"/>
        <g id="Group_960" data-name="Group 960" transform="translate(0 7.614)">
          <path id="Path_821" data-name="Path 821" d="M549.134,367.325a11.362,11.362,0,0,1,1.2-2.558,32.23,32.23,0,0,1,9.062-10.11,11.315,11.315,0,0,1,2.413-1.474,25.87,25.87,0,0,1-2.2,1.757,39.9,39.9,0,0,0-8.972,10.01A25.9,25.9,0,0,1,549.134,367.325Z" transform="translate(-549.129 -353.18)" fill="#263238"/>
        </g>
      </g>
      <g id="Group_964" data-name="Group 964" transform="translate(573.333 122.855)">
        <path id="Path_822" data-name="Path 822" d="M630.424,310.827a15.746,15.746,0,0,1,16.554-20.466c-1.9,9.355-5.97,18.124-16.554,20.466" transform="translate(-628.71 -290.289)" fill="#e8505b"/>
        <g id="Group_962" data-name="Group 962" transform="translate(0.994)" opacity="0.3">
          <path id="Path_823" data-name="Path 823" d="M630.424,310.827a15.746,15.746,0,0,1,16.554-20.466c-1.9,9.355-5.97,18.124-16.554,20.466" transform="translate(-629.704 -290.289)"/>
        </g>
        <g id="Group_963" data-name="Group 963" transform="translate(0 8.814)">
          <path id="Path_824" data-name="Path 824" d="M628.681,315.715a11.414,11.414,0,0,1,.7-2.738,32.208,32.208,0,0,1,7-11.634,11.3,11.3,0,0,1,2.091-1.9,25.629,25.629,0,0,1-1.827,2.138,39.891,39.891,0,0,0-6.93,11.52A25.37,25.37,0,0,1,628.681,315.715Z" transform="translate(-628.672 -299.44)" fill="#263238"/>
        </g>
      </g>
      <g id="Group_966" data-name="Group 966" transform="translate(0 62.221)">
        <path id="Path_825" data-name="Path 825" d="M37.282,239.63a15.746,15.746,0,0,1,24.611-9.335c-6.357,7.121-14.289,12.645-24.611,9.335" transform="translate(-33.514 -227.331)" fill="#e8505b"/>
        <g id="Group_965" data-name="Group 965" transform="translate(0 6.236)">
          <path id="Path_826" data-name="Path 826" d="M33.371,242.941a11.357,11.357,0,0,1,1.985-2.013,32.2,32.2,0,0,1,11.908-6.522,11.252,11.252,0,0,1,2.765-.588,25.941,25.941,0,0,1-2.656.926,39.9,39.9,0,0,0-11.79,6.459A25.736,25.736,0,0,1,33.371,242.941Z" transform="translate(-33.369 -233.806)" fill="#263238"/>
        </g>
      </g>
    </g>
    <g id="Speech_Bubble" data-name="Speech Bubble" transform="translate(477.361 35.868)">
      <g id="Group_970" data-name="Group 970">
        <g id="Group_969" data-name="Group 969">
          <g id="Group_968" data-name="Group 968">
            <path id="Path_827" data-name="Path 827" d="M494.374,106.888l7.741-13.951a37.183,37.183,0,1,1,9,9.82l.013.016Z" transform="translate(-494.374 -35.875)" fill="#fff" stroke="#000" stroke-linecap="round" stroke-linejoin="round" stroke-width="1.7"/>
            <g id="Group_967" data-name="Group 967">
              <path id="Path_828" data-name="Path 828" d="M494.374,106.88l16.724-4.237-.068.2-.013-.016-.587-.747.762.571a38.023,38.023,0,0,0,7.651,4.453,37.088,37.088,0,0,0,10.134,2.741,33.141,33.141,0,0,0,5.829.218c1-.07,2.02-.107,3.046-.206l3.1-.509a37.115,37.115,0,0,0,22.773-15,36.618,36.618,0,0,0,6.044-14.236,37.442,37.442,0,0,0-.6-16.306,36.209,36.209,0,0,0-8.005-15l-1.513-1.633c-.5-.549-1.088-1-1.627-1.5-.562-.475-1.071-1.015-1.675-1.434l-1.772-1.3a15.464,15.464,0,0,0-1.832-1.187l-1.87-1.112-1.955-.926a16.984,16.984,0,0,0-1.973-.856,37.46,37.46,0,0,0-16.457-2.38,36.227,36.227,0,0,0-15.054,4.584,37.321,37.321,0,0,0-17.273,21.58,39.891,39.891,0,0,0-1.525,11.972,36.909,36.909,0,0,0,5.582,18.253l.039.061-.035.062c-5,8.851-7.426,13.151-7.846,13.894l7.635-14.01,0,.122a36.981,36.981,0,0,1-5.726-18.367,40.153,40.153,0,0,1,1.5-12.1,37.7,37.7,0,0,1,17.422-21.869,36.659,36.659,0,0,1,15.241-4.665,37.9,37.9,0,0,1,16.677,2.4,17.294,17.294,0,0,1,2,.866l1.982.939,1.9,1.127a15.569,15.569,0,0,1,1.858,1.2l1.8,1.317c.613.424,1.128.971,1.7,1.452.546.509,1.145.967,1.649,1.524l1.533,1.655a36.659,36.659,0,0,1,8.11,15.2,37.881,37.881,0,0,1,.6,16.523A37.035,37.035,0,0,1,564.1,94.611a37.477,37.477,0,0,1-23.072,15.123l-3.134.5c-1.038.1-2.068.132-3.079.2a33.544,33.544,0,0,1-5.885-.242,37.249,37.249,0,0,1-10.212-2.813,38,38,0,0,1-7.681-4.533l.174-.176.013.016.119.154-.188.044Z" transform="translate(-494.374 -35.868)" fill="#fff" stroke="#000" stroke-linecap="round" stroke-linejoin="round" stroke-width="1.7"/>
            </g>
          </g>
        </g>
      </g>
      <g id="Group_972" data-name="Group 972" transform="translate(28.878 21.85)">
        <g id="Group_971" data-name="Group 971">
          <path id="Path_829" data-name="Path 829" d="M524.362,67.663l4.828-.047a4.1,4.1,0,0,1,4.174-4.167,3.908,3.908,0,0,1,3.808,2.458,4.325,4.325,0,0,1-.306,3.914c-.806,1.358-2.589,2.6-5.849,2.061l.1,10.888,4.775-.046-.061-6.378a9.324,9.324,0,0,0,6.609-9.175c-.067-7.061-6.416-8.641-9.126-8.615C531.245,58.575,524.189,59.144,524.362,67.663Z" transform="translate(-524.359 -58.555)" fill="#de5838"/>
          <rect id="Rectangle_649" data-name="Rectangle 649" width="4.846" height="4.526" transform="translate(6.771 26.458) rotate(-0.55)" fill="#de5838"/>
        </g>
      </g>
    </g>
  </g>
</svg>
